<?xml version="1.0" encoding="utf-8"?>
<!-- Generator: Adobe Illustrator 21.0.0, SVG Export Plug-In . SVG Version: 6.00 Build 0)  -->
<svg version="1.1" id="Слой_1" xmlns="http://www.w3.org/2000/svg" xmlns:xlink="http://www.w3.org/1999/xlink" x="0px" y="0px"
	 viewBox="0 0 50 50" style="enable-background:new 0 0 50 50;" xml:space="preserve">
<style type="text/css">
	.st0{fill:#FFFFFF;}
</style>
<path class="st0" d="M6,4C4.9,4,4,4.9,4,6v38c0,1.1,0.9,2,2,2h38c1.1,0,2-0.9,2-2V6c0-1.1-0.9-2-2-2H6z M6,6h38v38H6V6z M17,14l0,22
	h2.5V14H17z M31.5,14v7.9v0c-0.6-1.3-1.7-1.9-2.8-1.9c-2.4,0-4.7,2.4-4.7,7.9c0,5.1,1.9,8.4,4.5,8.4c1.6,0,2.5-0.8,3-1.9V36H34
	c0-0.9,0-2.3,0-3.4V14H31.5z M29.2,22.1c1.2,0,2.1,1.4,2.2,3c0,0.4,0,0.7,0,1.1v4.6c0,0,0,0.6-0.1,0.9c-0.5,2.2-1.5,2.6-2.3,2.6
	c-1.8,0-2.6-3.1-2.6-6.4C26.5,24.8,27.2,22.1,29.2,22.1z"/>
</svg>
