<?xml version="1.0" encoding="utf-8"?>
<!-- Generator: Adobe Illustrator 21.0.0, SVG Export Plug-In . SVG Version: 6.00 Build 0)  -->
<svg version="1.1" id="Слой_1" xmlns="http://www.w3.org/2000/svg" xmlns:xlink="http://www.w3.org/1999/xlink" x="0px" y="0px"
	 viewBox="0 0 50 50" style="enable-background:new 0 0 50 50;" xml:space="preserve">
<style type="text/css">
	.st0{fill:#FFFFFF;}
</style>
<path class="st0" d="M6,4C4.9,4,4,4.9,4,6v38c0,1.1,0.9,2,2,2h38c1.1,0,2-0.9,2-2V6c0-1.1-0.9-2-2-2H6z M6,6h38v38H6V6z M19.9,14
	L15,36h2.4l1.4-6.4h4.8L25,36h2.4l-4.8-22H19.9z M32.7,14c-0.8,0-1.5,0.6-1.5,1.6s0.6,1.6,1.5,1.6h0c0.9,0,1.5-0.6,1.5-1.6
	S33.7,14,32.7,14z M21.2,16.4L21.2,16.4c0.4,1.6,0.6,3.4,1,4.9l1.1,5.6l-4.1,0l1.1-5.6C20.7,19.9,21,18.1,21.2,16.4z M31.5,19v17H34
	V19H31.5z"/>
</svg>
