<?xml version="1.0" encoding="utf-8"?>
<!-- Generator: Adobe Illustrator 21.0.0, SVG Export Plug-In . SVG Version: 6.00 Build 0)  -->
<svg version="1.1" id="Слой_1" xmlns="http://www.w3.org/2000/svg" xmlns:xlink="http://www.w3.org/1999/xlink" x="0px" y="0px"
	 viewBox="0 0 50 50" style="enable-background:new 0 0 50 50;" xml:space="preserve">
<style type="text/css">
	.st0{fill:#FFFFFF;}
</style>
<path class="st0" d="M6,4C4.9,4,4,4.9,4,6v38c0,1.1,0.9,2,2,2h38c1.1,0,2-0.9,2-2V6c0-1.1-0.9-2-2-2H6z M6,6h38v38H6V6z M18.6,14
	c-1.4,0-2.6,0.2-3.6,0.4L15,36h2.5v-9.2c0.4,0,0.7,0,1.1,0c1.9,0,3.9-0.8,5.1-2.4C24.5,23.4,25,22,25,20c0-1.9-0.5-3.5-1.6-4.5
	C22.3,14.5,20.6,14,18.6,14z M19,15.6c2.8,0,3.6,2,3.6,4.2c0,3-1.6,4.6-4,4.6c-0.4,0-0.7,0-1-0.1v-8.6C17.9,15.7,18.4,15.6,19,15.6z
	 M31.7,20c-2.5,0-4.4,1.8-4.4,4.3c0,1.8,1.1,3.1,3.2,4.4c1.6,1,2.1,1.9,2.1,3.1c0,1.4-0.9,2.2-2.4,2.2c-1,0-2-0.4-2.6-0.8L27,35.1
	c0.7,0.5,2,0.9,3.2,0.9c2.7,0,4.8-1.5,4.8-4.6c0-2.2-1.5-3.6-3.3-4.8c-1.6-1-2-1.6-2-2.7c0-1,0.7-2,2.1-2c0.9,0,1.5,0.3,2.2,0.7
	l0.7-1.9C33.9,20.4,33,20,31.7,20z"/>
</svg>
