<?xml version="1.0" encoding="utf-8"?>
<!-- Generator: Adobe Illustrator 21.0.0, SVG Export Plug-In . SVG Version: 6.00 Build 0)  -->
<svg version="1.1" id="Layer_1" xmlns="http://www.w3.org/2000/svg" xmlns:xlink="http://www.w3.org/1999/xlink" x="0px" y="0px"
	 viewBox="0 0 512 512" style="enable-background:new 0 0 512 512;" xml:space="preserve">
<style type="text/css">
	.st0{fill:#FFFFFF;}
</style>
<g>
	<path class="st0" d="M6.2,493.5h101.2c3.4,0,6.2-2.8,6.2-6.2v-446c0-3.4-2.8-6.2-6.2-6.2H6.2c-3.4,0-6.2,2.8-6.2,6.2v446
		C0,490.7,2.8,493.5,6.2,493.5z"/>
	<path class="st0" d="M309.2,500.7c40.4,0,75.9-16.5,97.9-44.9l3.1,32c0.3,3.2,3,5.6,6.2,5.6h89.3c0,0,0,0,0,0
		c3.4,0,6.2-2.8,6.2-6.2c0-0.4,0-0.8-0.1-1.2c-1.3-21.8-2.6-59.4-2.6-95.4V17.5c0-3.4-2.8-6.2-6.2-6.2H402.5c-3.4,0-6.2,2.8-6.2,6.2
		v159.7c-18-17.3-46.4-27-80.5-27c-38.5,0-74.6,15-101.7,42.2c-32.7,32.9-49.8,80-49.5,136.1C164.7,428.3,225.5,500.7,309.2,500.7z
		 M341.6,408.3c-38.6,0-62.6-31.8-62.6-83.1c0-39.6,16.6-85.8,63.3-85.8c29.6,0,47.8,22.3,52.8,44.5c0.6,4.9,1.2,11.8,1.2,16.8V343
		c0,8.9-0.7,15.3-2.4,21.5c0,0.1-0.1,0.2-0.1,0.4C388.4,390.8,367.4,408.3,341.6,408.3z"/>
</g>
</svg>
